<svg width="200" height="200" viewBox="0 0 200 200" fill="none" xmlns="http://www.w3.org/2000/svg">
  <!-- 蛋糕底座 -->
  <defs>
    <linearGradient id="cakeGradient" x1="0%" y1="0%" x2="0%" y2="100%">
      <stop offset="0%" style="stop-color:#FFE4E1"/>
      <stop offset="100%" style="stop-color:#FFB6C1"/>
    </linearGradient>
  </defs>
  
  <!-- 蛋糕主体 -->
  <path d="M40 80 L160 80 L150 160 L50 160 Z" fill="url(#cakeGradient)" stroke="#F08080" stroke-width="2"/>
  
  <!-- 蛋糕层 -->
  <path d="M60 60 L140 60 L160 80 L40 80 Z" fill="#FFC0CB" stroke="#F08080" stroke-width="2"/>
  
  <!-- 奶油顶层 -->
  <path d="M70 40 C70 40, 100 20, 130 40 L140 60 L60 60 Z" fill="#FFF5EE" stroke="#FFE4E1" stroke-width="2"/>
  
  <!-- 装饰元素 -->
  <circle cx="85" cy="35" r="6" fill="#FF69B4"/>
  <circle cx="115" cy="35" r="6" fill="#FF69B4"/>
  <circle cx="100" cy="30" r="8" fill="#FF0000"/>
  
  <!-- 奶油花边装饰 -->
  <path d="M40 80 Q60 85 80 80 Q100 85 120 80 Q140 85 160 80" stroke="#FFF0F5" stroke-width="4" fill="none"/>
  
  <!-- 蛋糕纹理和装饰 -->
  <path d="M50 100 L150 100" stroke="#FFF0F5" stroke-width="3" fill="none"/>
  <path d="M55 120 L145 120" stroke="#FFF0F5" stroke-width="3" fill="none"/>
  <path d="M60 140 L140 140" stroke="#FFF0F5" stroke-width="3" fill="none"/>
  
  <!-- 小点缀装饰 -->
  <circle cx="70" cy="110" r="3" fill="#FFB6C1"/>
  <circle cx="130" cy="110" r="3" fill="#FFB6C1"/>
  <circle cx="100" cy="130" r="3" fill="#FFB6C1"/>
</svg>