<svg width="100" height="100" viewBox="0 0 100 100" fill="none" xmlns="http://www.w3.org/2000/svg">
  <!-- 托盘 -->
  <rect x="15" y="65" width="70" height="5" rx="2" fill="#E0E0E0" stroke="#BDBDBD" stroke-width="2"/>
  <!-- 汉堡 -->
  <path d="M25 45 C25 55, 45 55, 45 45" fill="#FFB74D" stroke="#FFA726" stroke-width="2"/>
  <path d="M27 50 C27 53, 43 53, 43 50" fill="#81C784" stroke="#66BB6A" stroke-width="1"/>
  <!-- 薯条 -->
  <rect x="55" y="35" width="5" height="25" rx="1" fill="#FFD54F" stroke="#FFC107" stroke-width="1"/>
  <rect x="65" y="35" width="5" height="25" rx="1" fill="#FFD54F" stroke="#FFC107" stroke-width="1"/>
  <rect x="75" y="35" width="5" height="25" rx="1" fill="#FFD54F" stroke="#FFC107" stroke-width="1"/>
  <!-- 可乐 -->
  <path d="M50 30 L55 60 L45 60 L50 30" fill="#795548" stroke="#5D4037" stroke-width="2"/>
  <path d="M47 25 L53 25 L55 30 L45 30 L47 25" fill="#E53935" stroke="#D32F2F" stroke-width="2"/>
  <!-- 吸管 -->
  <path d="M49 20 L49 35" stroke="#FFFFFF" stroke-width="2"/>
  <!-- 装饰 -->
  <circle cx="50" cy="40" r="2" fill="#FFFFFF" opacity="0.6"/>
  <circle cx="50" cy="45" r="1" fill="#FFFFFF" opacity="0.6"/>
</svg>