<svg width="200" height="200" viewBox="0 0 200 200" fill="none" xmlns="http://www.w3.org/2000/svg">
  <!-- 定义渐变 -->
  <defs>
    <linearGradient id="plateGradient" x1="0%" y1="0%" x2="100%" y2="100%">
      <stop offset="0%" style="stop-color:#FFFFFF"/>
      <stop offset="100%" style="stop-color:#F5F5F5"/>
    </linearGradient>
  </defs>

  <!-- 餐盘 -->
  <circle cx="100" cy="100" r="60" fill="url(#plateGradient)" stroke="#E0E0E0" stroke-width="2"/>
  <circle cx="100" cy="100" r="55" fill="none" stroke="#D3D3D3" stroke-width="1"/>
  
  <!-- 牛排 -->
  <path d="M70 85 Q85 80 100 85 Q115 90 130 85 Q115 115 70 85" fill="#CD853F" stroke="#8B4513" stroke-width="2"/>
  <path d="M75 90 Q90 85 105 90" stroke="#A0522D" stroke-width="2" fill="none"/>
  <path d="M95 95 Q110 90 125 95" stroke="#A0522D" stroke-width="2" fill="none"/>
  
  <!-- 配菜 -->
  <path d="M65 110 Q75 105 85 110" fill="#90EE90" stroke="#228B22" stroke-width="1"/>  <!-- 生菜 -->
  <circle cx="120" cy="110" r="8" fill="#FF6347"/>  <!-- 西红柿 -->
  <path d="M115 105 L125 115" stroke="#228B22" stroke-width="1"/>  <!-- 装饰 -->
  
  <!-- 刀叉 -->
  <path d="M50 70 L70 90" stroke="#C0C0C0" stroke-width="3" fill="none"/>  <!-- 刀 -->
  <path d="M150 70 L130 90" stroke="#C0C0C0" stroke-width="3" fill="none"/>  <!-- 叉 -->
  <path d="M145 75 L125 95" stroke="#C0C0C0" stroke-width="3" fill="none"/>  <!-- 叉 -->
  
  <!-- 酱汁 -->
  <path d="M80 100 Q100 105 120 100" stroke="#8B4513" stroke-width="2" fill="none" opacity="0.6"/>
  
  <!-- 装饰边框 -->
  <circle cx="100" cy="100" r="45" stroke="#D3D3D3" stroke-width="0.5" fill="none" stroke-dasharray="2 4"/>
</svg>