<svg width="100" height="100" viewBox="0 0 100 100" fill="none" xmlns="http://www.w3.org/2000/svg">
  <!-- 底部面包 -->
  <path d="M20 65 C20 75, 80 75, 80 65" fill="#FFB74D" stroke="#FFA726" stroke-width="2"/>
  <!-- 生菜 -->
  <path d="M25 60 C25 65, 75 65, 75 60" fill="#81C784" stroke="#66BB6A" stroke-width="2"/>
  <!-- 肉饼 -->
  <path d="M30 55 C30 60, 70 60, 70 55" fill="#8D6E63" stroke="#795548" stroke-width="2"/>
  <!-- 番茄片 -->
  <circle cx="40" cy="50" r="5" fill="#EF5350"/>
  <circle cx="60" cy="50" r="5" fill="#EF5350"/>
  <!-- 芝士片 -->
  <path d="M25 45 C25 50, 75 50, 75 45" fill="#FFF176" stroke="#FFEE58" stroke-width="2"/>
  <!-- 顶部面包 -->
  <path d="M20 30 C20 45, 80 45, 80 30" fill="#FFB74D" stroke="#FFA726" stroke-width="2"/>
  <!-- 芝麻装饰 -->
  <circle cx="35" cy="35" r="1" fill="#424242"/>
  <circle cx="45" cy="33" r="1" fill="#424242"/>
  <circle cx="55" cy="35" r="1" fill="#424242"/>
  <circle cx="65" cy="33" r="1" fill="#424242"/>
</svg>