<svg width="100" height="100" viewBox="0 0 100 100" fill="none" xmlns="http://www.w3.org/2000/svg">
  <!-- 披萨底座 -->
  <path d="M20 50 C20 70, 80 70, 80 50" fill="#FFE0B2" stroke="#FFB74D" stroke-width="2"/>
  <!-- 番茄酱 -->
  <path d="M25 48 C25 65, 75 65, 75 48" fill="#EF5350" stroke="#E53935" stroke-width="1"/>
  <!-- 芝士 -->
  <path d="M30 46 C30 60, 70 60, 70 46" fill="#FFF176" stroke="#FFEE58" stroke-width="1"/>
  <!-- 配料 -->
  <circle cx="35" cy="50" r="4" fill="#81C784"/>  <!-- 青椒 -->
  <circle cx="45" cy="45" r="4" fill="#8D6E63"/>  <!-- 香肠 -->
  <circle cx="55" cy="50" r="4" fill="#EF5350"/>  <!-- 番茄 -->
  <circle cx="65" cy="45" r="4" fill="#81C784"/>  <!-- 蘑菇 -->
  <!-- 装饰边缘 -->
  <path d="M20 50 C25 55, 35 55, 40 50" fill="#FFE0B2" stroke="#FFB74D" stroke-width="2"/>
  <path d="M40 50 C45 55, 55 55, 60 50" fill="#FFE0B2" stroke="#FFB74D" stroke-width="2"/>
  <path d="M60 50 C65 55, 75 55, 80 50" fill="#FFE0B2" stroke="#FFB74D" stroke-width="2"/>
  <!-- 热气 -->
  <path d="M35 35 Q40 30 45 35" stroke="#BDBDBD" stroke-width="2" opacity="0.6"/>
  <path d="M55 30 Q60 25 65 30" stroke="#BDBDBD" stroke-width="2" opacity="0.6"/>
</svg>