<svg width="200" height="200" viewBox="0 0 200 200" fill="none" xmlns="http://www.w3.org/2000/svg">
  <!-- 烤串 -->
  <rect x="60" y="40" width="4" height="120" rx="2" fill="#8B4513"/>  <!-- 竹签 -->
  <rect x="100" y="40" width="4" height="120" rx="2" fill="#8B4513"/>  <!-- 竹签 -->
  <rect x="140" y="40" width="4" height="120" rx="2" fill="#8B4513"/>  <!-- 竹签 -->
  
  <!-- 肉串 -->
  <circle cx="62" cy="70" r="10" fill="#FFB6C1"/>
  <circle cx="62" cy="100" r="10" fill="#FFB6C1"/>
  <circle cx="62" cy="130" r="10" fill="#FFB6C1"/>
  
  <!-- 蔬菜串 -->
  <rect x="95" y="65" width="14" height="14" rx="2" fill="#90EE90"/>
  <rect x="95" y="95" width="14" height="14" rx="2" fill="#FF6B6B"/>
  <rect x="95" y="125" width="14" height="14" rx="2" fill="#90EE90"/>
  
  <!-- 鸡翅 -->
  <path d="M135 65 Q142 72 135 79" stroke="#CD853F" stroke-width="12" fill="none"/>
  <path d="M135 95 Q142 102 135 109" stroke="#CD853F" stroke-width="12" fill="none"/>
  <path d="M135 125 Q142 132 135 139" stroke="#CD853F" stroke-width="12" fill="none"/>
  
  <!-- 烤制效果 -->
  <path d="M55 75 L69 75" stroke="#8B4513" stroke-width="2"/>
  <path d="M55 105 L69 105" stroke="#8B4513" stroke-width="2"/>
  <path d="M55 135 L69 135" stroke="#8B4513" stroke-width="2"/>
  
  <!-- 热气 -->
  <path d="M70 30 Q80 20 90 30" stroke="#FF6B6B" stroke-width="2" fill="none"/>
  <path d="M100 25 Q110 15 120 25" stroke="#FF6B6B" stroke-width="2" fill="none"/>
  <path d="M130 30 Q140 20 150 30" stroke="#FF6B6B" stroke-width="2" fill="none"/>
</svg>